<?xml version="1.0" encoding="utf-8"?>
<!-- Generator: Adobe Illustrator 27.9.0, SVG Export Plug-In . SVG Version: 6.00 Build 0)  -->
<svg version="1.1" id="Layer_1" xmlns="http://www.w3.org/2000/svg" xmlns:xlink="http://www.w3.org/1999/xlink" x="0px" y="0px"
	 width="208px" height="40px" viewBox="0 0 208 40" style="enable-background:new 0 0 208 40;" xml:space="preserve">
<style type="text/css">
	.st0{fill:#DC213B;}
	.st1{fill:#FFFFFF;}
	.st2{font-family:'LiveNation-ExtraBold';}
	.st3{font-size:2.1759px;}
</style>
<g>
	<polygon id="FRAME_00000029736302005442116110000001326026966949083792_" class="st0" points="145.954,4.17 142.935,4.17 
		142.935,4.173 139.816,4.173 3.223,4.173 0.103,4.173 0.103,7.293 0.103,31.929 0.103,35.047 3.223,35.047 49.718,35.047 
		49.718,31.929 3.223,31.929 3.223,7.293 139.816,7.293 139.816,31.929 93.03,31.945 93.03,35.062 139.816,35.047 142.935,35.047 
		142.935,35.044 145.954,35.044 208.104,35.044 208.104,4.17 	"/>
	<g id="THAILAND_00000097466429438834852670000014614089317644072863_">
		<path class="st1" d="M54.826,35.83V32.4H53.57v-1.229h3.924V32.4h-1.249v3.43H54.826z"/>
		<path class="st1" d="M61.094,35.83v-1.781h-1.678v1.781h-1.418v-4.659h1.418v1.648h1.678v-1.648h1.418v4.659H61.094z"/>
		<path class="st1" d="M66.394,35.83l-0.169-0.545h-1.684l-0.168,0.545h-1.607l1.727-4.659h1.783l1.727,4.659H66.394z
			 M65.383,32.554l-0.463,1.502h0.926L65.383,32.554z"/>
		<path class="st1" d="M68.254,35.83v-4.659h1.418v4.659H68.254z"/>
		<path class="st1" d="M70.43,35.83v-4.659h1.418v3.43h1.776v1.229H70.43z"/>
		<path class="st1" d="M77.316,35.83l-0.169-0.545h-1.684l-0.168,0.545h-1.607l1.727-4.659h1.783l1.727,4.659H77.316z
			 M76.305,32.554l-0.463,1.502h0.926L76.305,32.554z"/>
		<path class="st1" d="M82.32,35.83l-1.727-2.361v2.361h-1.418v-4.659h1.46l1.628,2.207v-2.207h1.418v4.659H82.32z"/>
		<path class="st1" d="M84.44,35.83v-4.659h2.092c1.474,0,2.569,0.838,2.569,2.326c0,1.488-1.095,2.333-2.562,2.333H84.44z
			 M87.662,33.497c0-0.629-0.365-1.097-1.123-1.097h-0.681v2.2h0.674C87.241,34.601,87.662,34.084,87.662,33.497z"/>
	</g>
	<g id="TERO_00000153666899629373005040000001010597800539148959_">
		<polygon class="st1" points="157.351,12.775 152.383,12.775 148.717,12.775 143.742,12.775 143.742,15.959 148.717,15.959 
			148.717,26.506 152.383,26.506 152.383,15.959 157.351,15.959 		"/>
		<path class="st1" d="M199.492,13.095c0.913,0.304,1.734,0.74,2.425,1.336c0.696,0.588,1.248,1.334,1.659,2.189
			c0.404,0.878,0.601,1.883,0.601,3.039c0,1.141-0.197,2.145-0.601,3.009c-0.411,0.88-0.963,1.615-1.659,2.206
			c-0.691,0.581-1.512,1.027-2.425,1.305c-0.926,0.275-1.913,0.411-2.951,0.411c-1.068,0-2.04-0.137-2.96-0.411
			c-0.939-0.278-1.748-0.724-2.437-1.305c-0.701-0.592-1.246-1.326-1.659-2.206c-0.409-0.864-0.598-1.868-0.598-3.009
			c0-1.156,0.189-2.162,0.598-3.039c0.413-0.855,0.958-1.6,1.659-2.189c0.689-0.596,1.499-1.031,2.437-1.336
			c0.92-0.319,1.892-0.471,2.96-0.471C197.579,12.624,198.566,12.775,199.492,13.095z M195.004,16.074
			c-0.484,0.184-0.911,0.425-1.274,0.742c-0.367,0.33-0.659,0.728-0.881,1.22c-0.233,0.478-0.339,1.018-0.339,1.641
			c0,0.607,0.107,1.156,0.339,1.632c0.222,0.482,0.514,0.875,0.881,1.208c0.362,0.311,0.79,0.57,1.274,0.746
			c0.47,0.182,1,0.262,1.537,0.262c0.539,0,1.038-0.08,1.508-0.262c0.49-0.175,0.916-0.435,1.273-0.746
			c0.375-0.332,0.686-0.726,0.894-1.208c0.221-0.477,0.329-1.026,0.329-1.632c0-0.623-0.108-1.163-0.329-1.641
			c-0.208-0.492-0.519-0.89-0.894-1.22c-0.356-0.317-0.783-0.558-1.273-0.742c-0.47-0.181-0.969-0.264-1.508-0.264
			C196.004,15.809,195.473,15.893,195.004,16.074z"/>
		<polygon class="st1" points="171.544,15.959 171.544,12.775 159.23,12.775 159.23,26.506 171.544,26.506 171.544,23.336 
			162.9,23.336 162.9,20.924 168.512,20.924 168.512,18.027 162.9,18.027 162.9,15.959 		"/>
		<path class="st1" d="M184.098,21.397L184.098,21.397L184.098,21.397c1.016-0.303,1.864-0.776,2.527-1.455
			c0.655-0.679,0.991-1.623,0.991-2.824c0-1.468-0.417-2.563-1.23-3.284c-0.826-0.697-2.134-1.059-3.963-1.059h-8.278v13.731h3.67
			V21.33h2.407l0,0h0.006l3.48,5.176h3.827L184.098,21.397z M183.428,18.156c-0.271,0.276-0.779,0.407-1.493,0.407h-4.119v-2.86
			h4.119c0.715,0,1.222,0.142,1.493,0.429c0.257,0.292,0.393,0.614,0.393,1.005C183.821,17.525,183.685,17.855,183.428,18.156z"/>
	</g>
	
		<text id="TM__x5B_font_LIVENATION_EXTRA_BOLD_x5D__00000081631658402740543490000011186944515948462775_" transform="matrix(1 0 0 1 135.2568 14.293)" class="st0 st2 st3">TM</text>
	<path id="LIVE_NATION_00000127019442755140078710000017135708488427070375_" class="st0" d="M43.747,16.741v1.162h6.698v3.471
		h-6.698v1.154h6.698v3.97h-11.23V12.84l-3.986,13.654h-7.245L24.007,12.84v13.654h-4.53V12.771h9.21l2.925,9.826l2.933-9.826
		h15.902v3.97H43.747L43.747,16.741z M13.426,12.771H8.926v13.734h9.857v-4.016h-5.357v-9.716V12.771z M82.046,12.771l4.008,13.734
		h-4.695l-0.648-2.261h-4.57l-0.648,2.261h-9.047l-6.215-7.111v7.111h-4.5V12.771h4.367l6.255,7.245v-7.245h4.453v13.654
		L74.8,12.771h7.245H82.046z M79.598,20.359l-1.17-4.109l-1.17,4.109h2.339H79.598z M83.803,16.779h4.469v9.716h4.53v-9.716h4.461
		v-4.008h-13.46V16.779z M97.95,26.503h4.53V12.771h-4.53v13.734V26.503z M118.118,19.632c0,2.106-0.709,3.837-2.114,5.138
		c-1.397,1.301-3.213,1.957-5.405,1.957h-0.054c-2.152,0-3.962-0.664-5.381-1.965c-1.419-1.309-2.136-3.034-2.136-5.132
		s0.709-3.821,2.114-5.132c1.389-1.301,3.205-1.965,5.397-1.965h0.054c2.192,0,4.008,0.664,5.405,1.965
		c1.411,1.309,2.122,3.042,2.122,5.132l0,0L118.118,19.632z M113.508,19.632c0-0.835-0.272-1.528-0.803-2.051
		c-0.538-0.531-1.24-0.795-2.106-0.795h-0.054c-0.858,0-1.568,0.264-2.106,0.795c-0.538,0.531-0.803,1.224-0.803,2.051
		c0,0.827,0.272,1.528,0.803,2.051c0.538,0.531,1.24,0.795,2.106,0.795h0.054c0.858,0,1.568-0.264,2.106-0.795
		C113.236,21.16,113.508,20.467,113.508,19.632z M129.277,12.769v7.245l-6.255-7.245h-4.367v13.734h4.501v-7.111l6.215,7.111h4.367
		V12.771h-4.461L129.277,12.769z"/>
</g>
</svg>
